<?xml version="1.0" standalone="no"?>
<!DOCTYPE svg PUBLIC "-//W3C//DTD SVG 20010904//EN"
 "http://www.w3.org/TR/2001/REC-SVG-20010904/DTD/svg10.dtd">
<svg version="1.0" xmlns="http://www.w3.org/2000/svg"
 width="499.000000pt" height="499.000000pt" viewBox="0 0 499.000000 499.000000"
 preserveAspectRatio="xMidYMid meet">
<metadata>
Created by potrace 1.14, written by Peter Selinger 2001-2017
</metadata>
<g transform="translate(0.000000,499.000000) scale(0.100000,-0.100000)"
fill="#000000" stroke="none">
<path d="M2457 4324 c-1 -1 -42 -4 -92 -7 -465 -31 -912 -260 -1213 -621 -205
-246 -322 -500 -389 -841 -27 -140 -24 -454 5 -600 47 -231 115 -410 227 -597
37 -62 71 -115 74 -118 3 -3 33 -39 66 -80 236 -296 553 -496 940 -595 238
-61 523 -67 770 -16 477 97 873 373 1146 796 24 37 98 185 132 265 47 110 100
317 114 450 10 94 10 334 0 420 -61 513 -356 983 -792 1262 -250 160 -535 257
-810 274 -55 3 -117 7 -138 8 -20 1 -38 2 -40 0z"/>
</g>
</svg>
